<?xml version="1.0" standalone="no"?>
<!DOCTYPE svg PUBLIC "-//W3C//DTD SVG 20010904//EN"
 "http://www.w3.org/TR/2001/REC-SVG-20010904/DTD/svg10.dtd">
<svg version="1.0" xmlns="http://www.w3.org/2000/svg"
 width="700.000000pt" height="700.000000pt" viewBox="0 0 700.000000 700.000000"
 preserveAspectRatio="xMidYMid meet">
<metadata>
Created by potrace 1.11, written by Peter Selinger 2001-2013
</metadata>
<g transform="translate(0.000000,700.000000) scale(0.100000,-0.100000)"
fill="#000000" stroke="none">
<path d="M523 6232 c-13 -2 -36 -17 -53 -33 -32 -33 -32 -30 -32 -191 0 -93
-1 -98 -22 -99 -11 0 -59 -1 -106 -1 -115 0 -156 -11 -180 -51 -19 -30 -20
-53 -20 -390 0 -453 -11 -429 200 -437 l125 -5 1 -95 c1 -52 2 -110 3 -127 1
-21 12 -45 30 -65 l29 -33 124 -2 c67 -1 128 -2 133 -3 7 0 10 -136 11 -392 0
-216 3 -410 6 -430 14 -91 87 -186 182 -235 43 -23 64 -27 136 -27 47 0 91 2
98 4 11 4 14 -34 16 -205 3 -201 4 -212 28 -265 99 -215 372 -262 536 -92 88
93 86 79 90 630 l3 484 42 -8 c162 -30 318 60 377 216 7 20 14 89 16 160 1 69
3 134 3 145 1 20 8 20 1771 20 l1770 0 32 32 32 33 2 125 c1 69 3 128 6 130 2
2 59 5 126 6 114 1 125 3 152 25 39 33 46 62 45 192 l0 114 140 -4 c113 -3
147 -7 175 -22 48 -25 95 -80 109 -126 7 -25 11 -190 11 -514 0 -520 1 -510
-59 -578 -65 -75 59 -69 -1625 -70 -1041 0 -1517 -4 -1533 -11 -13 -6 -32 -25
-43 -42 -18 -30 -20 -51 -20 -264 l0 -231 -65 0 c-129 0 -155 -36 -155 -213
l0 -113 -32 -9 c-18 -6 -42 -24 -54 -42 l-21 -31 0 -1353 c0 -1484 -4 -1394
59 -1486 38 -57 109 -110 171 -128 80 -24 351 -21 422 4 66 24 125 68 164 125
61 89 58 14 57 1493 l-1 1352 -21 28 c-11 15 -35 32 -52 38 l-32 9 0 113 c0
177 -26 213 -155 213 l-65 0 0 165 0 165 1473 2 1472 3 55 22 c111 46 207 142
253 253 22 54 22 62 25 576 2 506 2 522 -19 585 -42 129 -154 243 -278 284
-57 19 -116 24 -266 25 l-90 0 -1 125 c-2 183 -16 198 -189 201 -60 2 -117 3
-125 3 -13 1 -15 21 -14 118 1 129 -7 160 -53 190 -26 17 -166 18 -2668 18
-1452 0 -2650 -1 -2662 -3z m5162 -762 l0 -545 -1761 -1 c-1688 -1 -1762 -2
-1792 -20 -17 -10 -36 -30 -42 -45 -7 -16 -12 -106 -13 -224 l-2 -197 -33 -29
c-30 -27 -52 -34 -92 -30 -49 5 -83 51 -95 123 -6 38 -51 87 -83 89 -57 4
-107 -22 -122 -64 -6 -19 -10 -251 -10 -651 0 -598 -1 -622 -20 -653 -41 -69
-149 -64 -182 8 -14 29 -16 86 -16 379 0 220 -4 355 -11 372 -15 39 -67 68
-110 63 -44 -6 -88 -49 -96 -95 -4 -19 -8 -40 -9 -45 -6 -37 -58 -75 -101 -75
-46 0 -103 43 -106 79 -1 9 -2 223 -3 476 -2 421 -3 462 -19 486 -28 42 -67
52 -193 52 -63 0 -114 2 -115 6 -2 13 -5 1076 -3 1081 1 3 1133 5 2516 5
l2513 0 0 -545z m-5248 0 l0 -220 -54 0 -53 0 0 220 0 220 53 0 54 0 0 -220z
m5574 213 c1 -5 2 -104 3 -220 l1 -213 -55 0 -55 0 2 208 c0 114 1 213 2 220
1 13 100 18 102 5z m-2401 -2458 l0 -55 -110 0 -110 0 0 55 0 55 110 0 110 0
0 -55z m107 -1542 c2 -1241 1 -1270 -18 -1302 -10 -17 -31 -36 -45 -41 -14 -6
-88 -10 -164 -10 l-140 0 -32 29 -33 29 -2 1284 -1 1283 216 -1 217 -1 2
-1270z"/>
<path d="M1705 5021 c-44 -19 -60 -49 -64 -128 -2 -42 2 -93 8 -113 24 -80
128 -102 183 -38 26 30 31 56 26 149 -3 77 -5 82 -36 110 -33 30 -75 37 -117
20z"/>
<path d="M1263 4910 c-12 -5 -30 -21 -40 -37 -16 -24 -18 -56 -19 -328 -1
-238 1 -306 12 -327 40 -78 144 -81 188 -7 16 27 18 61 18 325 0 198 -4 304
-11 323 -21 50 -90 74 -148 51z"/>
</g>
</svg>
